<!DOCTYPE svg PUBLIC "-//W3C//DTD SVG 1.1//EN" "http://www.w3.org/Graphics/SVG/1.1/DTD/svg11.dtd">
<!-- Uploaded to: SVG Repo, www.svgrepo.com, Transformed by: SVG Repo Mixer Tools -->
<svg width="256px" height="256px" viewBox="0 0 48.00 48.00" xmlns="http://www.w3.org/2000/svg" fill="#000000" stroke="#000000" stroke-width="2.4" transform="rotate(-45)">
<g id="SVGRepo_bgCarrier" stroke-width="0"/>
<g id="SVGRepo_tracerCarrier" stroke-linecap="round" stroke-linejoin="round"/>
<g id="SVGRepo_iconCarrier">
<defs>
<style>.a{fill:none;stroke:#292c28;stroke-linecap:round;stroke-linejoin:round;}</style>
</defs>
<path class="a" d="M14.3932,24.59a11.0439,11.0439,0,1,1,15.8633-3.4578"/>
<path class="a" d="M18.4805,43.4989l-7.5308-7.53c-1.6245-1.9934,1.7814-5.3275,3.62-3.4953l3.7858,3.703-.0839-20.4278c.095-3.1861,5.0338-3.4445,5.0757-.0408l.042,9.2768c-.0608-2.3259,4.6229-2.5478,4.7842-.0409l.0419,2.5478c-.0121-2.063,4.9189-1.7438,5.0758.3225l-.042,3.1618c.0906-2.21,5.0139-2.2231,4.9918-.0408l.0729,10.9079A1.6456,1.6456,0,0,1,36.68,43.5h-.011Z"/>
</g>
</svg>