<!DOCTYPE svg PUBLIC "-//W3C//DTD SVG 1.1//EN" "http://www.w3.org/Graphics/SVG/1.1/DTD/svg11.dtd">
<!-- Uploaded to: SVG Repo, www.svgrepo.com, Transformed by: SVG Repo Mixer Tools -->
<svg width="256px" height="256px" viewBox="0 0 48.00 48.00" id="a" xmlns="http://www.w3.org/2000/svg" fill="#000000" stroke="#000000" stroke-width="1.2" transform="rotate(-45)">
<g id="SVGRepo_bgCarrier" stroke-width="0"/>
<g id="SVGRepo_tracerCarrier" stroke-linecap="round" stroke-linejoin="round"/>
<g id="SVGRepo_iconCarrier"> <defs> <style>.e{fill:none;stroke:#f67c19;stroke-linecap:round;stroke-linejoin:round;}</style> </defs> <path id="b" class="e" d="M40.5,5.5H7.5c-1.1046,0-2,.8954-2,2V40.5c0,1.1046,.8954,2,2,2H40.5c1.1046,0,2-.8954,2-2V7.5c0-1.1046-.8954-2-2-2Z"/> <g> <path id="c" class="e" d="M26.9703,13.5l4.7051,4.6263-12.0651,12.1439-6.0982,1.3406,1.6823-6.072,11.7759-12.0388Z"/> <path id="d" class="e" d="M14.0641,34.1867c8.2785,1.0696,13.1772-.6453,15.2719-4.4423,.6936-1.2573-.7598-3.0337-2.4708-.9989-2.2764,2.7071-.6526,9.3247,5.2045,2.5234-1.1558,3.4735-.1384,3.5847,2.4183,1.3143"/> </g> </g>
</svg>