<!DOCTYPE svg PUBLIC "-//W3C//DTD SVG 1.1//EN" "http://www.w3.org/Graphics/SVG/1.1/DTD/svg11.dtd">
<!-- Uploaded to: SVG Repo, www.svgrepo.com, Transformed by: SVG Repo Mixer Tools -->
<svg width="256px" height="256px" viewBox="0 0 48.00 48.00" id="Layer_2" data-name="Layer 2" xmlns="http://www.w3.org/2000/svg" fill="#000000" stroke="#000000" stroke-width="1.2">
<g id="SVGRepo_bgCarrier" stroke-width="0"/>
<g id="SVGRepo_tracerCarrier" stroke-linecap="round" stroke-linejoin="round"/>
<g id="SVGRepo_iconCarrier">
<defs>
<style>.cls-1{fill:none;stroke:#f67c19;stroke-linecap:round;stroke-linejoin:round;}</style>
</defs>
<path class="cls-1" d="M6.45,8.4A2,2,0,0,0,4.5,10.35v27.3a2,2,0,0,0,2,2h35.1a2,2,0,0,0,2-2V10.35a2,2,0,0,0-2-1.95Zm3.79,8.14,1.71-3,1.71,3m0,2.41-1.71,3-1.71-3m0,10.08,1.71-3,1.71,3m0,2.41-1.71,3-1.71-3"/>
<line class="cls-1" x1="17.92" y1="13.58" x2="39.03" y2="13.58"/>
<line class="cls-1" x1="39.03" y1="17.75" x2="21.65" y2="17.75"/>
<line class="cls-1" x1="25.37" y1="21.91" x2="39.03" y2="21.91"/>
<line class="cls-1" x1="17.92" y1="26.09" x2="39.03" y2="26.09"/>
<line class="cls-1" x1="39.03" y1="30.25" x2="21.65" y2="30.25"/>
<line class="cls-1" x1="25.37" y1="34.42" x2="39.03" y2="34.42"/>
</g>
</svg>